<?xml version="1.0" encoding="UTF-8"?>
<!-- Generator: visioncortex VTracer 0.6.4 -->
<svg version="1.1" xmlns="http://www.w3.org/2000/svg" width="1024" height="1024">
<path d="M 0 0 C 337.9 0 675.8 0 1024 0 C 1024 337.9 1024 675.8 1024 1024 C 686.1 1024 348.2 1024 0 1024 C 0 686.1 0 348.2 0 0 Z" fill="#ffffff" transform="translate(0)"/>
<path d="M 0 0 C 3.1 2.1 4.9 5 7 8 C 7.8 9.1 8.6 10.2 9.4 11.4 C 9.8 12 10.2 12.6 10.6 13.2 C 21.4 28.4 33.9 37.8 52.2 42.6 C 55.5 43.1 58.8 43.2 62.1 43.3 C 83 43.9 101.5 47.9 116.5 63.2 C 125.4 73.1 128.7 84.1 128.3 97.3 C 127.2 109.4 124.2 118.7 116 128 C 115.4 128.7 114.9 129.5 114.3 130.2 C 105.1 140.8 87.5 145.8 74 147 C 70 147.1 66.1 147.2 62.1 147.2 C 60.5 147.2 60.5 147.2 58.8 147.2 C 56.4 147.2 54.1 147.2 51.7 147.2 C 48.1 147.2 44.5 147.2 40.9 147.2 C 38.6 147.2 36.4 147.2 34.1 147.2 C 32.5 147.2 32.5 147.2 30.8 147.3 C 29.8 147.2 28.8 147.2 27.8 147.2 C 26.5 147.2 26.5 147.2 25.1 147.2 C 23 147 23 147 21 145 C 20.9 142.7 20.9 142.7 22 140 C 23.2 139.4 24.3 138.9 25.5 138.3 C 28.3 136.3 28.9 135.4 29.6 132 C 29.9 128 29.9 124 29.8 120 C 29.8 118.5 29.8 117 29.8 115.5 C 29.8 112.3 29.7 109.2 29.7 106.1 C 29.6 102.1 29.6 98.1 29.6 94.1 C 29.6 91 29.6 87.9 29.6 84.8 C 29.5 83.3 29.5 81.9 29.5 80.4 C 29.5 69.5 29 60.3 21.2 52 C 18.7 49.7 16 47.7 13.3 45.8 C 3.5 38.7 -3.6 29.8 -10.6 20.2 C -11.1 19.5 -11.7 18.8 -12.2 18.1 C -15.2 13.8 -17 10.4 -17 5 C -12.1 -0.1 -6.9 -1.4 0 0 Z" fill="#302ac3" transform="matrix(1,0,0,1,229,510)"/>
<path d="M 0 0 C 0.7 0.2 1.3 0.5 2 0.7 C 3.4 1.2 4.8 1.7 6.2 2.2 C 8.3 3 10.4 3.7 12.5 4.5 C 29.5 10.6 29.5 10.6 32.8 13.2 C 34.7 17.9 33.3 22.8 31.9 27.5 C 29.9 31.3 29.9 31.3 27.8 32.6 C 22.5 33 18.7 32.6 13.8 30.6 C 13.8 32.3 13.8 33.9 13.8 35.6 C 14.8 36.1 15.8 36.6 16.9 37.2 C 26.5 42.3 34.2 47.8 41.8 55.6 C 43 56.8 43 56.8 44.2 58 C 54.5 68.9 61.5 81.6 66.8 95.6 C 67.2 96.6 67.2 96.6 67.6 97.6 C 74.8 116.9 74.1 140.1 67.8 159.6 C 67.5 160.6 67.5 160.6 67.1 161.6 C 60.1 182.7 43.8 205 23.8 215.6 C 19.2 215.7 16.8 213.1 13.6 210.2 C 10.9 207.8 7.9 206.3 4.8 204.6 C 4.9 202.8 4.9 202.8 5.8 200.6 C 8.2 198.9 8.2 198.9 11.3 197.3 C 16.9 194.2 21.9 190.8 26.8 186.6 C 27.4 186.1 28 185.6 28.6 185.1 C 41.1 173.7 48.7 156.3 49.8 139.6 C 49.8 138.7 49.9 137.8 50 136.8 C 50.8 121 49.5 108 42.8 93.6 C 42.3 92.5 41.7 91.3 41.2 90.2 C 30.1 69.2 9.8 57.6 -11.9 50 C -18.7 48.3 -25.5 48.2 -32.4 48.2 C -33.5 48.2 -34.6 48.1 -35.7 48.1 C -45.8 48.2 -54.8 50.4 -63.8 55 C -64.5 55.4 -65.2 55.7 -65.8 56 C -72.2 59.4 -78 63.5 -83.6 67.8 C -84.6 68.6 -84.6 68.6 -85.7 69.4 C -86.3 69.8 -86.9 70.3 -87.5 70.7 C -89.2 71.6 -89.2 71.6 -91.3 71.4 C -95.6 69.6 -97.8 65.6 -99.6 61.5 C -100.3 58.3 -100.3 56.7 -99.2 53.6 C -82.5 37.1 -55.2 26.4 -32.1 26.3 C -25 26.4 -18.2 27.3 -11.2 28.6 C -10.9 27 -10.6 25.3 -10.2 23.6 C -10.8 23.5 -11.4 23.4 -12 23.3 C -15.6 22.6 -18.6 22 -21.8 20.1 C -24.1 16 -23.9 12.2 -23.2 7.6 C -21.9 3.4 -20.2 0.5 -16.9 -2.5 C -11.2 -4.4 -5.4 -1.9 0 0 Z" fill="#3c2fcc" transform="translate(334.2,347.4)"/>
<path d="M 0 0 C 2.1 0 4.2 0 6.3 -0.1 C 7.6 -0.1 8.9 -0.1 10.3 -0.1 C 12.1 -0.1 12.1 -0.1 14 -0.1 C 18.5 0.4 21 2.1 24.2 5.2 C 24.9 7.2 24.9 7.2 25.6 9.7 C 25.9 10.6 26.1 11.5 26.4 12.5 C 26.6 13.5 26.9 14.5 27.2 15.5 C 27.4 16.6 27.7 17.6 28 18.7 C 28.9 22 29.8 25.3 30.7 28.7 C 31.3 30.9 31.9 33.1 32.4 35.3 C 33.8 40.3 35.1 45.4 36.5 50.4 C 37 52.4 37.5 54.3 38.1 56.3 C 38.5 57.8 38.5 57.8 38.9 59.3 C 39.2 60.2 39.4 61 39.7 61.9 C 40.2 64.2 40.2 64.2 40.2 67.2 C 40.9 67.2 41.6 67.2 42.2 67.2 C 42.4 66.6 42.6 65.9 42.7 65.3 C 44.7 58.1 46.8 51 49.1 43.9 C 49.5 42.8 49.9 41.6 50.2 40.5 C 51 38.1 51.8 35.7 52.6 33.4 C 53.7 29.7 54.9 26.1 56.1 22.5 C 56.8 20.1 57.6 17.8 58.3 15.5 C 58.7 14.4 59 13.3 59.4 12.2 C 59.7 11.2 60 10.2 60.4 9.2 C 60.7 8.3 61 7.4 61.2 6.5 C 62.3 4.1 63.2 2.8 65.2 1.2 C 67.9 0.9 67.9 0.9 71.1 0.9 C 72.9 0.9 72.9 0.9 74.6 0.9 C 75.8 0.9 77.1 1 78.3 1 C 79.5 1 80.7 1 82 1 C 90.9 1.1 90.9 1.1 93.2 2.2 C 92.5 8.8 92.5 8.8 91.2 11.1 C 86.8 20.9 91.1 37.1 92.5 47.5 C 93 51 93.5 54.6 93.9 58.1 C 94 59 94.2 59.8 94.3 60.7 C 95 66 95.6 71.3 96.1 76.6 C 96.2 77.8 96.3 79 96.5 80.3 C 96.7 82.5 96.9 84.7 97.1 87 C 97.8 94.2 99.4 99.7 104 105.5 C 105.2 107.2 105.2 107.2 105 109.4 C 104.2 111.2 104.2 111.2 103.2 112.2 C 100.4 112.4 97.5 112.4 94.7 112.4 C 93.8 112.4 93 112.4 92.1 112.4 C 90.2 112.4 88.4 112.4 86.6 112.4 C 83.8 112.4 81 112.4 78.2 112.5 C 76.5 112.5 74.7 112.5 72.9 112.5 C 72.1 112.5 71.2 112.5 70.4 112.5 C 64.5 112.5 64.5 112.5 62.2 110.2 C 62.4 105.3 65.2 102.9 68.2 99.2 C 71.2 88.7 69.1 76.3 68.4 65.5 C 68.3 63.1 68.2 60.7 68 58.4 C 67.6 50.3 67.1 42.3 66.2 34.2 C 61.8 45.7 57.9 57.3 54 68.9 C 46.7 91.2 46.7 91.2 43.2 100.2 C 42.9 100.9 42.6 101.6 42.4 102.3 C 41 105.7 39.6 108.5 37.2 111.2 C 31.7 110.7 31.7 110.7 29.6 108.5 C 28.3 106.3 27.4 104.4 26.6 102 C 26.3 101.1 26.1 100.3 25.8 99.4 C 25.5 98.6 25.2 97.7 24.9 96.7 C 24.6 95.8 24.3 94.9 24 93.9 C 21.8 87.1 19.7 80.4 17.7 73.6 C 15.4 65.8 13 58 10.6 50.3 C 10.1 48.8 9.7 47.3 9.2 45.8 C 8.6 43.8 8 41.7 7.3 39.6 C 6.9 38.4 6.6 37.2 6.2 36 C 5.5 33.4 5.5 33.4 4.2 32.2 C 3 48.8 2 65.3 1.9 81.9 C 1.9 83.1 1.9 84.3 1.9 85.6 C 1.9 91.9 2 96.8 5.2 102.2 C 6.7 103.8 6.7 103.8 8.4 104.7 C 9.3 105.2 10.3 105.7 11.2 106.2 C 10.9 108.7 10.9 108.7 10.2 111.2 C 6 113.4 0.5 112.4 -4.2 112.4 C -6.3 112.4 -8.3 112.4 -10.4 112.5 C -11.7 112.5 -13 112.5 -14.3 112.5 C -15.5 112.5 -16.7 112.5 -17.9 112.5 C -20.8 112.2 -20.8 112.2 -22.8 110.2 C -22.7 107.8 -22.7 107.8 -21.8 105.2 C -21 104.8 -20.2 104.3 -19.3 103.8 C -15.9 101.7 -15.8 100.1 -14.8 96.2 C -14.4 94 -14.2 91.8 -14 89.6 C -13.9 88.3 -13.8 87 -13.6 85.6 C -13.5 84.2 -13.4 82.8 -13.3 81.4 C -13.1 79.9 -13 78.5 -12.9 77 C -12.6 73.9 -12.3 70.8 -12.1 67.8 C -11.7 63.9 -11.4 59.9 -11 56 C -10.7 53 -10.5 50 -10.2 46.9 C -10.1 45.5 -9.9 44.1 -9.8 42.6 C -7.5 25.7 -7.5 25.7 -12.8 10.2 C -13.9 9.2 -13.9 9.2 -15.1 8.1 C -15.6 7.5 -16.2 6.9 -16.8 6.2 C -16.5 3.5 -16.5 3.5 -15.8 1.2 C -10.7 -0.5 -5.3 0 0 0 Z" fill="#2427b8" transform="translate(461.8,402.8)"/>
<path d="M 0 0 C 0.7 0.1 1.4 0.2 2.2 0.3 C 4.6 4.5 5.9 7.5 5.2 12.3 C 2.7 15.6 0.1 17.2 -3.8 18.3 C -5.5 18.4 -7.1 18.4 -8.8 18.3 C -8.5 19 -8.2 19.7 -7.9 20.3 C -4.4 29.2 -3.2 36.6 -6.6 45.7 C -10.2 53.7 -15.2 58.1 -23.3 61.3 C -32.4 64.1 -41.5 64 -50.8 62.3 C -51.1 64 -51.5 65.6 -51.8 67.3 C -48.4 69.6 -47.1 69.6 -43 69.6 C -41.9 69.7 -40.7 69.7 -39.5 69.7 C -37.1 69.7 -34.7 69.8 -32.3 69.8 C -22.8 70 -11.9 70.5 -4.2 76.8 C -0.2 81.1 1.4 85.5 1.7 91.3 C 1.4 97.8 -1 102.2 -5.1 107 C -19.4 119.3 -35.6 119.5 -53.8 118.3 C -61.3 117.3 -67.9 114.1 -72.8 108.3 C -75.2 104.3 -75.5 99.9 -74.8 95.3 C -72 90.1 -66.9 87.9 -61.8 85.3 C -62.4 84.9 -63 84.4 -63.6 84 C -70.4 78.8 -70.4 78.8 -71.3 75.2 C -71.5 72.7 -71.4 70.7 -70.8 68.3 C -67.3 64.5 -63.5 62.4 -58.8 60.3 C -59.5 59.6 -60.2 59 -60.9 58.3 C -67.6 51.6 -72.1 46.9 -72.2 37.1 C -72.1 29.7 -71.1 24.9 -66.1 19.5 C -56.4 10.2 -45 7 -31.8 7 C -27.8 7.3 -24.4 8.3 -20.6 9.4 C -17.2 10.5 -17.2 10.5 -13.8 10.3 C -10.2 8 -8 5.8 -5.2 2.6 C -2.8 0.3 -2.8 0.3 0 0 Z" fill="#2327b7" transform="translate(720.8,427.7)"/>
<path d="M 0 0 C 1 1 1 1 1.1 2.9 C 1.1 4.2 1.1 4.2 1.1 5.5 C 1.1 6.5 1.1 7.4 1.1 8.4 C 1.1 9.5 1.1 10.5 1.1 11.6 C 1.1 12.7 1.1 13.7 1.1 14.8 C 1.1 18.2 1.1 21.6 1.1 25.1 C 1.1 27.4 1.1 29.7 1 32 C 1 37.7 1 43.3 1 49 C 1.7 49 2.3 49 3 49 C 3.2 48.4 3.5 47.8 3.7 47.2 C 5.3 44.5 6.9 43.5 9.4 41.8 C 10.2 41.3 11 40.8 11.8 40.3 C 17.7 36.9 24.4 37.5 31 38 C 34 38.9 36.4 40.2 39 42 C 39.9 42.5 40.7 43.1 41.6 43.6 C 50 52 53.3 62.3 53.5 73.8 C 53.5 85.7 49.4 95.5 41 104 C 31.7 112.3 20.6 115.8 8.2 115.4 C 3.7 114.8 -0.3 113.5 -4.4 111.8 C -7.2 110.9 -8.4 110.9 -11 112 C -11.8 112.5 -12.6 113.1 -13.4 113.6 C -16 115 -16 115 -18.8 114.8 C -21 114 -21 114 -22 113 C -22.1 110.2 -22.1 107.4 -22.1 104.7 C -22 103.8 -22 102.9 -22 102 C -22 100.1 -22 98.2 -22 96.3 C -22 93.3 -21.9 90.2 -21.9 87.2 C -21.9 78.6 -21.8 70 -21.8 61.4 C -21.7 56.2 -21.7 50.9 -21.7 45.7 C -21.6 43.7 -21.6 41.7 -21.6 39.7 C -21.6 36.9 -21.6 34.1 -21.6 31.2 C -21.5 30.4 -21.5 29.6 -21.5 28.8 C -21.5 23.1 -22.8 18.8 -26 14 C -26.5 13.5 -27.1 13 -27.7 12.4 C -28.3 11.7 -28.3 11.7 -29 11 C -28.7 8.3 -28.7 8.3 -28 6 C -23 4.5 -17.9 3.2 -12.9 1.9 C -12.2 1.7 -11.5 1.5 -10.8 1.3 C -7.1 0.4 -3.8 -0.3 0 0 Z" fill="#2326b7" transform="translate(464,543)"/>
<path d="M 0 0 C 3.7 3 6.4 6.2 7.9 10.8 C 8 14.9 7 18.3 5.6 22.1 C 5.3 22.9 5 23.7 4.7 24.5 C 2.4 31.1 -0.2 37.7 -2.9 44.2 C -5.4 50.4 -7.7 56.6 -9.8 62.9 C -12.9 72 -16.2 80.9 -19.6 89.9 C -22.7 98 -25.8 106.1 -28.7 114.4 C -30.2 118.7 -31.7 123 -33.3 127.3 C -34.2 129.7 -35.1 132.1 -36 134.5 C -36.2 135.1 -36.5 135.7 -36.7 136.4 C -39.8 144.8 -42.8 153.2 -45.6 161.7 C -45.9 162.7 -46.2 163.6 -46.5 164.5 C -48.1 169.1 -49.6 173.6 -51.1 178.2 C -57.5 197.6 -57.5 197.6 -64.8 203.1 C -69.9 204.5 -75 205.3 -80.1 203.1 C -84.1 200.4 -86.5 197.6 -88 193 C -88.8 184.6 -86.2 178.7 -82.8 171.1 C -82.2 169.9 -81.7 168.6 -81.1 167.4 C -79.7 164.2 -78.3 161 -76.8 157.9 C -74.5 152.8 -72.3 147.7 -70 142.6 C -69.5 141.5 -69 140.4 -68.5 139.2 C -62.7 126.3 -57.4 113.1 -52 100 C -45.5 84.2 -38.9 68.4 -32.1 52.7 C -29 45.7 -26 38.6 -23 31.5 C -22 29.1 -20.9 26.7 -19.9 24.3 C -19.3 22.7 -18.6 21.2 -18 19.6 C -17.1 17.4 -16.1 15.3 -15.2 13.1 C -14.9 12.4 -14.7 11.8 -14.4 11.1 C -11.4 4.2 -8.3 -1.4 0 0 Z" fill="#2729ba" transform="translate(199,485)"/>
<path d="M 0 0 C 1.9 2.9 2.5 4.4 3.2 7.7 C 3.4 8.6 3.6 9.5 3.8 10.4 C 4.2 12.3 4.6 14.2 5.1 16.2 C 6.6 24.6 6.6 24.6 11.6 31.1 C 18.2 34.7 25.7 36.4 33 38.4 C 33.9 38.6 34.9 38.9 36 39.2 C 36.9 39.5 37.8 39.7 38.7 40 C 41.5 41.2 42.5 42.4 44 45 C 44.2 48.4 44.2 48.4 43 52 C 37.4 56.7 30.1 59.2 23.4 61.9 C 18.3 64 15.2 65.7 13 71 C 12.6 75.2 12.8 79.3 12.9 83.6 C 13 85.8 13.1 88 13.2 90.3 C 13.2 91.2 13.2 92.2 13.3 93.2 C 12.9 96.5 11.9 98.3 10 101 C 7 102.5 5.3 102.5 2 102 C -3 97.3 -6.4 91.5 -10.1 85.7 C -12.6 82.1 -14.5 80.5 -18.7 79.1 C -23.3 78.9 -27 80.4 -31.4 81.9 C -37.5 84.1 -42.5 85.5 -49 85 C -51 83.9 -51 83.9 -52 82 C -53.1 74.7 -49.5 70.4 -45.6 64.5 C -39.9 56.4 -39.9 56.4 -38 47 C -39.2 44.4 -40.4 42.3 -42 40 C -44.8 35.7 -46.9 32.3 -46 27 C -44.6 24.6 -44.6 24.6 -42 23 C -37.8 22.5 -34.1 22.6 -30 24 C -28.4 24.1 -26.9 24.1 -25.3 24.1 C -24.5 24.1 -23.7 24 -22.9 24 C -22.2 24 -21.6 24 -21 24 C -20.7 23.3 -20.4 22.5 -20.1 21.8 C -18.4 17.5 -16.2 13.4 -14 9.3 C -13.5 8.4 -13.1 7.5 -12.6 6.6 C -12.2 5.8 -11.8 4.9 -11.3 4.1 C -10.9 3.3 -10.5 2.6 -10.1 1.8 C -7.6 -2.3 -4.1 -0.9 0 0 Z" fill="#01a1fd" transform="translate(220,396)"/>
<path d="M 0 0 C 1.4 1.1 1.4 1.1 2.8 2.1 C 3.7 2.8 4.7 3.6 5.8 4.3 C 13.2 10.7 17 19.4 18.1 29 C 18.5 40.4 15.2 51.4 7.8 60.1 C 0.4 68 -8.3 72.1 -19 72.5 C -31.8 72.6 -40.8 69.5 -50.1 60.4 C -58.5 51.3 -60.1 41.3 -59.7 29.1 C -58.9 19.2 -52.5 10.6 -45.3 4.1 C -31.7 -5.9 -15.1 -8.7 0 0 Z" fill="#2427b7" transform="translate(581.3,585.9)"/>
<path d="M 0 0 C 4.8 3.8 8.3 8.7 9.3 14.9 C 9.4 17.2 9.4 19.6 9.3 21.9 C 9.3 23.7 9.4 25.5 9.4 27.2 C 9.4 29.9 9.3 32.7 9.3 35.4 C 9.3 38.1 9.3 40.8 9.3 43.4 C 9.3 44.2 9.3 45 9.3 45.9 C 9.3 52 11.1 55.9 14.9 60.7 C 15.5 61.2 16 61.7 16.6 62.3 C 17.9 63.7 17.9 63.7 18 66.1 C 16.5 69.8 14.1 71.4 10.9 73.7 C 6 75.3 1 75.2 -4.1 74.7 C -7.3 73 -7.3 73 -9.1 70.7 C -9.5 69 -9.8 67.4 -10.1 65.7 C -10.7 66.2 -11.3 66.6 -11.9 67.1 C -13.1 68.1 -13.1 68.1 -14.3 69.1 C -15.1 69.7 -15.8 70.3 -16.6 71 C -23.6 75.8 -31.9 75.7 -40.1 74.7 C -47.3 72.6 -51.4 69.1 -55.1 62.7 C -57 57 -57 51 -54.6 45.5 C -48.4 34.7 -37.1 30.7 -25.6 27.6 C -14.7 24.7 -14.7 24.7 -12.1 24.7 C -12.9 16.7 -12.9 16.7 -16.1 9.4 C -20.4 6.9 -24.2 6.8 -29.1 7.7 C -32.8 10.1 -34.7 14.1 -36.9 17.9 C -38.6 20.5 -40.4 21.6 -43.5 22.1 C -47.4 21.5 -48.7 19.8 -51.1 16.7 C -51.8 12.9 -51.3 11.1 -49.6 7.7 C -37.6 -6.7 -15.9 -10 0 0 Z" fill="#2427b7" transform="translate(625.1,440.3)"/>
<path d="M 0 0 C 1.7 1.7 1.4 3.8 1.6 6.1 C 1.7 7.4 1.7 7.4 1.8 8.8 C 1.9 9.6 1.9 10.3 2 11 C 2.3 10.5 2.7 10.1 3 9.6 C 6.9 4.6 10.7 1.6 17 0 C 24.6 -0.8 31.2 -0.5 38 3 C 40.8 5.4 40.8 5.4 43 8 C 43.6 8.6 44.1 9.3 44.7 9.9 C 48.2 15.5 48.3 21 48.3 27.3 C 48.3 29.1 48.4 30.9 48.4 32.8 C 48.4 35.6 48.4 38.4 48.5 41.3 C 48.5 44 48.5 46.8 48.6 49.6 C 48.6 50.8 48.6 50.8 48.6 52.1 C 48.6 57.5 49.5 61.2 52 66 C 52.7 66.7 53.5 67.4 54.3 68.1 C 54.8 68.7 55.4 69.4 56 70 C 55.6 72.6 55.6 72.6 55 75 C 50.2 75 45.4 75 40.5 75.1 C 38.9 75.1 37.2 75.1 35.6 75.1 C 33.2 75.1 30.9 75.1 28.5 75.1 C 27.8 75.1 27.1 75.1 26.3 75.1 C 24.5 75.1 22.8 75.1 21 75 C 20 74 20 74 19.6 71.8 C 20.2 67.9 22.2 66.6 25 64 C 26.2 60.5 26.2 57.2 26.2 53.5 C 26.2 52.4 26.2 52.4 26.2 51.3 C 26.2 49.7 26.2 48.2 26.2 46.6 C 26.2 44.3 26.3 41.9 26.3 39.6 C 26.3 38 26.3 36.5 26.3 35 C 26.3 34.3 26.4 33.6 26.4 32.9 C 26.3 27.8 25.3 24.4 23 20 C 20.6 17.8 19.1 17.1 15.9 16.9 C 11.6 17.1 9.5 17.6 6.1 20.3 C 2.3 25.3 1.7 28.9 1.7 35.1 C 1.7 35.9 1.7 36.7 1.7 37.5 C 1.7 39.1 1.7 40.8 1.7 42.4 C 1.7 44.9 1.7 47.4 1.6 50 C 1.6 51.6 1.6 53.2 1.6 54.8 C 1.6 55.5 1.6 56.3 1.6 57 C 1.6 61.5 2.2 64.4 5 68 C 6 68.7 7 69.3 8 70 C 7.7 71.7 7.3 73.3 7 75 C -4.5 75 -16.1 75 -28 75 C -28.5 72.5 -28.5 72.5 -29 70 C -28.2 69.4 -27.4 68.8 -26.6 68.1 C -24 66.3 -24 66.3 -23 64 C -22.9 62.6 -22.8 61.3 -22.8 59.9 C -22.8 59.1 -22.8 58.3 -22.8 57.4 C -22.8 56.5 -22.8 55.6 -22.8 54.6 C -22.8 53.7 -22.7 52.8 -22.7 51.8 C -22.7 49.8 -22.7 47.8 -22.7 45.9 C -22.7 42.8 -22.6 39.8 -22.6 36.8 C -22.6 34.9 -22.6 32.9 -22.6 31 C -22.6 30.1 -22.5 29.2 -22.5 28.3 C -22.5 22.3 -23.6 18.9 -27 14 C -27.6 13.5 -28.2 12.9 -28.8 12.4 C -29.2 11.9 -29.6 11.5 -30 11 C -29.7 9.3 -29.4 7.7 -29 6 C -25.1 4.8 -21.2 3.6 -17.3 2.4 C -16.2 2.1 -15.1 1.8 -14 1.4 C -12.9 1.1 -11.8 0.8 -10.7 0.4 C -9.8 0.1 -8.8 -0.2 -7.8 -0.5 C -4.8 -1 -2.9 -0.9 0 0 Z" fill="#2326b7" transform="translate(721,581)"/>
<path d="M 0 0 C 0 1 0 1 0 2 C 0.1 8.7 0.2 15.5 0.3 22.2 C 0.3 24.7 0.3 27.2 0.3 29.8 C 0.4 33.4 0.4 37 0.5 40.6 C 0.5 41.7 0.5 42.9 0.5 44 C 0.6 50.3 1.2 55.3 4 61 C 7.7 63.5 9.6 63.4 14 63 C 17.2 62.1 19.2 61.4 20.9 58.4 C 23.3 51.6 23.5 45 23.4 37.9 C 23.4 35.9 23.5 33.9 23.5 31.8 C 23.5 24.7 23.4 19.7 19 14 C 18.4 13.4 17.8 12.9 17.2 12.3 C 16.6 11.7 16.6 11.7 16 11 C 16.1 8.9 16.1 8.9 17 7 C 19.8 5.2 21.4 4.5 24.5 3.7 C 25.4 3.5 26.2 3.3 27.1 3 C 28 2.8 28.9 2.6 29.9 2.4 C 30.8 2.1 31.7 1.9 32.6 1.7 C 33.5 1.5 34.3 1.2 35.2 1 C 36 0.8 36.8 0.6 37.6 0.4 C 40.2 0 42.4 -0.1 45 0 C 46.7 1.7 46.1 4.1 46.2 6.4 C 46.2 7.6 46.2 8.8 46.2 10 C 46.2 11.2 46.2 12.5 46.2 13.8 C 46.2 15.8 46.3 17.7 46.3 19.7 C 46.3 24.6 46.4 29.5 46.4 34.4 C 46.4 37.1 46.4 39.9 46.5 42.6 C 46.5 45.2 46.5 47.8 46.5 50.4 C 46.5 51.5 46.6 52.7 46.6 53.9 C 46.6 55 46.6 56 46.6 57 C 47.2 61.6 48.8 64.9 52.3 68.1 C 53.1 69 53.1 69 54 70 C 53.8 72.8 53.8 72.8 53 75 C 46.2 77.5 37.9 78.6 30.9 76.3 C 28.1 74.6 27.1 73.3 26.1 70.3 C 26.1 69.5 26 68.8 26 68 C 25.5 68.4 25 68.8 24.5 69.2 C 15 76.6 8.1 78.1 -4 77 C -10.3 75.6 -14.7 73 -18.8 68.1 C -22.1 62.2 -22.3 56.4 -22.2 49.8 C -22.2 48 -22.2 46.3 -22.2 44.5 C -22.2 41.7 -22.2 39 -22.2 36.2 C -22.2 33.6 -22.2 30.9 -22.3 28.2 C -22.3 27.4 -22.2 26.6 -22.2 25.7 C -22.3 20.1 -23.7 17.4 -27.7 13.5 C -29 12 -29 12 -29.4 9.1 C -29.2 8 -29.2 8 -29 7 C -26 6 -23 5 -20 4 C -19.4 3.8 -18.7 3.6 -18.1 3.4 C -15.9 2.6 -13.8 1.9 -11.7 1.3 C -11 1 -10.3 0.8 -9.6 0.5 C -5.9 -0.6 -3.6 -1.1 0 0 Z" fill="#2326b7" transform="translate(631,581)"/>
<path d="M 0 0 C 5.6 4.4 9.6 9 10.6 16.2 C 10.8 23.2 10.8 23.2 10.1 26.7 C 6.1 29.7 1.9 30.6 -2.9 31.5 C -3.7 31.7 -4.4 31.8 -5.2 32 C -6.8 32.3 -8.4 32.6 -10 32.9 C -12.5 33.4 -14.9 33.9 -17.4 34.3 C -18.9 34.6 -20.5 34.9 -22 35.3 C -22.8 35.4 -23.5 35.5 -24.3 35.7 C -27.6 36.3 -30.5 36.7 -33.9 36.7 C -30.6 44.2 -27.9 48.8 -20.7 53 C -13.4 54.8 -6.5 54.1 0.1 50.7 C 1.2 50 2.2 49.2 3.3 48.5 C 6.1 46.7 6.1 46.7 10.1 46.7 C 10.7 51.4 10.3 53.9 7.5 57.7 C 1.5 65 -5.2 70.7 -14.8 71.9 C -25.8 72.8 -35.4 71.4 -44.5 64.8 C -52.4 57.8 -57.5 48.1 -58.3 37.6 C -58.9 26.5 -56.9 17.2 -49.7 8.4 C -36.6 -5.3 -16.5 -11.4 0 0 Z" fill="#2326b7" transform="translate(420.9,586.3)"/>
<path d="M 0 0 C 6.4 4.8 12.2 9.5 14.8 17.3 C 14.9 19.2 15 21 15 22.8 C 15 23.8 15.1 24.8 15.1 25.7 C 14.7 28.8 14.2 29.4 11.8 31.3 C 9.5 32.1 9.5 32.1 6.8 32.6 C 5.3 32.9 5.3 32.9 3.7 33.2 C 2.7 33.4 1.6 33.6 0.5 33.8 C -0.6 34 -1.6 34.3 -2.7 34.5 C -4.9 34.9 -7.1 35.3 -9.2 35.7 C -11.8 36.3 -14.4 36.8 -17 37.3 C -26.8 39.3 -26.8 39.3 -30.2 39.3 C -26.9 46.9 -24.2 52 -16.5 55.6 C -8.2 57.4 -1.6 56.6 5.8 52.3 C 6.5 51.7 7.3 51.1 8 50.5 C 9.8 49.3 9.8 49.3 12.5 49.6 C 13.3 49.9 14 50.1 14.8 50.3 C 14 58.6 9.4 63.3 3.3 68.5 C -5.3 74.7 -14.9 75.4 -25.2 74.3 C -34.8 72.5 -42.2 67 -47.9 59.1 C -49.1 56.9 -50.2 54.7 -51.2 52.3 C -51.5 51.7 -51.9 51 -52.2 50.3 C -55.7 41.7 -55.5 31.3 -52.7 22.5 C -48.1 11.6 -40.1 4.4 -29.5 -0.5 C -20.7 -3.7 -8.2 -5.1 0 0 Z" fill="#2327b7" transform="translate(906.2,583.7)"/>
<path d="M 0 0 C 9.8 2.5 16.1 8.5 21.8 16.6 C 26.5 25.2 28 32.3 27.9 42.1 C 27.9 43.1 27.9 44.2 27.9 45.3 C 27.9 57.3 23.7 66 15.4 74.6 C 7.6 81.2 0 83.1 -10.1 82.9 C -13.6 82.4 -15.3 81.1 -17.6 78.6 C -19.1 75.6 -18.8 73 -18.8 69.7 C -18.8 69 -18.8 68.3 -18.8 67.6 C -18.9 65.2 -18.9 62.9 -18.9 60.5 C -18.9 59.7 -18.9 58.9 -18.9 58.1 C -18.9 53.9 -19 49.7 -19 45.4 C -19 41.1 -19 36.7 -19.1 32.3 C -19.1 29 -19.1 25.6 -19.1 22.3 C -19.1 20.7 -19.2 19.1 -19.2 17.4 C -19.2 15.2 -19.2 12.9 -19.2 10.7 C -19.2 9.4 -19.2 8.1 -19.2 6.8 C -18.6 3.6 -18.6 3.6 -16.2 1.1 C -11.2 -1.9 -5.7 -0.9 0 0 Z" fill="#ffffff" transform="translate(302.6,564.4)"/>
<path d="M 0 0 C 2.5 0.5 2.5 0.5 5 1 C 5.2 1.6 5.3 2.1 5.5 2.7 C 6 4.5 6.6 6.2 7.1 7.9 C 7.7 10 8.3 12.1 8.8 14.2 C 11.2 23.6 15.2 30.4 23.6 35.6 C 29.6 38.6 35.8 40.1 42.3 41.3 C 45 42 45 42 47 44 C 46.8 46.5 46.8 46.5 46 49 C 42.9 51.1 41 51.6 37.4 52.3 C 27.2 54.8 20 59.3 14 68 C 10.8 74.1 8.6 80.4 7.5 87.2 C 7 89 7 89 5 92 C 2.1 92.5 2.1 92.5 -1 92 C -3.7 88.3 -4.7 84.7 -5.8 80.3 C -8.6 70 -13.7 62.2 -23 56.9 C -28.5 54.1 -34.3 52.9 -40.4 51.6 C -43 51 -43 51 -44 50 C -44.4 47.1 -44.4 47.1 -44 44 C -39.3 40.4 -33.3 39.1 -27.7 37.3 C -18.6 34.5 -13.6 30.3 -9 22 C -7 17.9 -5.9 13.8 -5.1 9.3 C -4.3 5.3 -2.9 2.9 0 0 Z" fill="#02a1fd" transform="translate(241,288)"/>
<path d="M 0 0 C 0.8 0 1.7 0 2.5 -0.1 C 9.6 -0.1 15.7 1.6 21.2 6.3 C 21.6 6.9 22 7.5 22.5 8.1 C 23.2 8.9 23.2 8.9 23.9 9.9 C 27 14.3 26.4 19.2 26 24.4 C 24.4 28.2 23.4 29.2 20 31.4 C 16.6 31.9 16.6 31.9 13 31.4 C 9 27.9 7 22.7 4.7 18 C 2.7 15 1.2 13.9 -2 12.4 C -6.6 11.9 -10.1 12.8 -13.9 15.5 C -19.5 23.3 -19.9 31 -19 40.4 C -17.4 47 -15.1 53.6 -9.3 57.6 C -3.1 61.3 2.9 62.5 10 61.4 C 13.3 60.1 16.3 58.6 19.3 56.8 C 21.6 55.6 23.4 54.8 26 54.4 C 27 55.4 27 55.4 27 58.9 C 26.2 64.6 23 68.5 19 72.4 C 8.6 80.1 -1.4 80.4 -14 79.4 C -24 77.4 -31 70.5 -36.8 62.4 C -43 52.5 -43.7 40.1 -41.2 28.9 C -37.4 17.8 -29.6 8.7 -19 3.4 C -12.6 0.8 -6.9 -0.1 0 0 Z" fill="#2326b7" transform="translate(810,435.6)"/>
<path d="M 0 0 C 3.6 3 6.8 5.6 7.7 10.4 C 8.2 15.3 8.3 17.4 6 21.8 C 2.7 25.6 2.7 25.6 -0.3 26.4 C -3.2 26.5 -3.2 26.5 -6.3 25.4 C -8.3 23 -9.7 20.2 -11.3 17.4 C -14.7 10.9 -14.7 10.9 -20.3 6.4 C -24.2 5.8 -25.9 6.2 -29.4 8.2 C -34 11.8 -35.6 14.8 -37.3 20.4 C -38.2 30.4 -37.5 39.9 -31 47.9 C -26.1 52.9 -21.4 54.6 -14.4 54.9 C -7.5 54.8 -1.2 52.4 3.7 47.4 C 5.9 47.8 5.9 47.8 7.7 48.4 C 8.4 52.7 7.6 55 5.2 58.4 C -0.8 65.7 -7.5 71.4 -17.2 72.7 C -28.4 73.6 -38.3 72 -47.6 65.2 C -55.7 56.7 -60.3 46.5 -60.7 34.7 C -60.2 22.9 -54.9 13.2 -46.4 5.1 C -33.8 -4.6 -13.9 -9.7 0 0 Z" fill="#2327b7" transform="translate(838.3,585.6)"/>
<path d="M 0 0 C 2.4 1 2.4 1 3.5 3.2 C 4.4 6 5.1 8.8 5.7 11.7 C 7.5 19.2 10.4 26.3 16.9 30.9 C 21.4 33.4 26.4 34.5 31.3 35.7 C 36.2 36.8 36.2 36.8 38.4 39 C 38.6 41.4 38.6 41.4 37.4 44 C 34.1 45.4 34.1 45.4 32 46.1 C 28.9 47.2 26.1 48.5 23.3 49.9 C 22.3 50.4 21.3 50.9 20.3 51.4 C 10.8 56.8 8 64.5 5.1 74.6 C 4.6 76.7 4 78.9 3.4 81 C 1.5 81 -0.5 81 -2.6 81 C -3 79.9 -3.4 78.8 -3.8 77.7 C -4.1 77 -4.4 76.2 -4.7 75.5 C -5.3 73.8 -5.8 72.1 -6.4 70.3 C -9.2 61.3 -13.9 54.6 -22.4 50.1 C -26.7 48.2 -31 46.8 -35.5 45.7 C -37.6 45 -37.6 45 -39.6 43 C -39.7 40.6 -39.7 40.6 -38.6 38 C -35.9 36.8 -33.4 35.9 -30.6 35 C -22.1 32.2 -14.8 28.4 -10.3 20.4 C -8.2 15.8 -7.3 10.8 -6.4 5.9 C -5.3 1.9 -4.2 0 0 0 Z" fill="#03a1fd" transform="translate(161.6,337)"/>
<path d="M 0 0 C 2 2 2 2 2.2 4.6 C 2.2 5.7 2.2 6.8 2.2 8 C 2.2 9.2 2.2 10.5 2.2 11.8 C 2.2 12.5 2.2 13.2 2.2 13.9 C 2.2 16 2.2 18.1 2.2 20.2 C 2.2 26.2 2.3 32.2 2.2 38.2 C 2.2 41.9 2.2 45.6 2.3 49.3 C 2.3 50.7 2.3 52.1 2.2 53.5 C 1.9 62.5 1.9 62.5 6.1 70.1 C 6.9 70.9 6.9 70.9 7.8 71.6 C 9 73 9 73 8.9 75.9 C 8.6 76.6 8.3 77.3 8 78 C 3.2 78 -1.6 78.1 -6.4 78.1 C -8.1 78.1 -9.7 78.1 -11.3 78.2 C -13.7 78.2 -16 78.2 -18.4 78.2 C -19.5 78.2 -19.5 78.2 -20.6 78.2 C -22.4 78.2 -24.2 78.1 -26 78 C -26.7 77.3 -27.3 76.7 -28 76 C -27.9 71.8 -24.8 69.8 -22 67 C -21.1 64.3 -20.9 61.7 -20.8 58.9 C -20.8 58.1 -20.8 57.3 -20.8 56.4 C -20.8 55.6 -20.8 54.7 -20.8 53.9 C -20.8 53 -20.8 52.1 -20.8 51.2 C -20.8 49.3 -20.8 47.4 -20.8 45.5 C -20.8 42.6 -20.7 39.8 -20.7 36.9 C -20.7 35.1 -20.7 33.2 -20.7 31.4 C -20.7 30.6 -20.6 29.7 -20.6 28.8 C -20.7 22.4 -22 18.3 -26.3 13.4 C -28 11 -28 11 -28.1 8.8 C -26.4 6 -24.1 5.9 -21 5 C -19.7 4.6 -18.4 4.1 -17.1 3.7 C -15.7 3.3 -14.3 2.8 -12.9 2.4 C -12.2 2.1 -11.5 1.9 -10.8 1.7 C -7.2 0.5 -3.9 -0.5 0 0 Z" fill="#2428b8" transform="translate(757,436)"/>
<path d="M 0 0 C 0.8 0 1.6 0.1 2.4 0.1 C 3.2 2.3 3.2 2.3 3.4 5.1 C 1.8 6.9 0.1 8.5 -1.6 10.1 C -3.1 11.6 -4.6 13 -6 14.5 C -6.8 15.3 -7.6 16.1 -8.5 16.9 C -9.3 17.8 -10.1 18.6 -11 19.4 C -11.8 20.3 -12.7 21.1 -13.5 21.9 C -18.4 26.8 -23.1 31.8 -27.6 37.1 C -28.6 38.3 -29.7 39.4 -30.7 40.6 C -32.9 43.1 -34.7 45.8 -36.6 48.7 C -39.9 53.8 -43.7 58.2 -49.6 60.1 C -54.3 60.7 -57.7 60.6 -61.9 58.4 C -65.5 55.3 -68.1 52.7 -69.6 48.1 C -70.1 41 -69.1 37 -64.3 31.4 C -60.2 27.9 -55.9 26.2 -50.9 24.5 C -44.2 22.1 -37.9 19.2 -31.5 16.2 C -29.6 15.3 -27.6 14.3 -25.6 13.4 C -18.4 10.1 -7.2 0.3 0 0 Z" fill="#03a0fd" transform="translate(357.6,432.9)"/>
<path d="M 0 0 C 7.8 4.9 11.9 12.3 14.3 21.1 C 16.2 31.2 17 44.1 11 53 C 8.5 55.2 7.4 55.9 4.1 56.4 C -1.6 55.6 -5.4 52.2 -8.8 47.8 C -16 37 -17 24.6 -16 12 C -14.8 7.2 -12.9 4 -9.7 0.4 C -5.8 -1.6 -4.1 -1.3 0 0 Z" fill="#ffffff" transform="translate(561,593)"/>
<path d="M 0 0 C 5.7 2.9 8.4 7.1 10.5 13 C 13.4 24.1 13.6 35.7 8 46 C 5.8 49.4 3.7 51.5 -0.2 52.7 C -3.9 53.3 -6.3 53.3 -9.9 51.8 C -14.5 47.9 -16 44 -17 38 C -17.3 33.5 -17.4 29 -17.4 24.5 C -17.4 23.3 -17.4 22.1 -17.4 20.9 C -17.5 12.9 -16.6 7.3 -11.3 1 C -7.5 -0.7 -4.1 -0.9 0 0 Z" fill="#ffffff" transform="translate(482,596)"/>
<path d="M 0 0 C 4.7 2.5 6.5 6.2 8.3 11.1 C 10.2 18.9 10.2 27 6 34 C 2.2 36.5 0.5 36.5 -4 36 C -9.5 32.9 -11.4 29 -13.3 23 C -15 15.5 -14.9 8.7 -11 2 C -7.6 -1.8 -4.7 -1.2 0 0 Z" fill="#ffffff" transform="translate(685,446)"/>
<path d="M 0 0 C 2.9 1.1 4.3 2 5.9 4.7 C 6.4 8.1 6.4 8.1 5.9 11.7 C 2.5 16.3 -1.7 18.6 -7.1 19.7 C -14.7 20.4 -21.4 20.3 -28.1 16.7 C -31.3 13.8 -32 12.4 -32.6 8.2 C -32.1 4.1 -31 2.5 -28.1 -0.3 C -21.3 -3.8 -7.3 -1.8 0 0 Z" fill="#ffffff" transform="translate(697.1,516.3)"/>
<path d="M 0 0 C 4.6 3.2 4.6 3.2 6 5.9 C 6.3 11.5 6.2 15.2 3 19.9 C -0.5 23 -3.6 23.4 -8.1 23.2 C -12.1 22.6 -14.3 20.8 -16.9 17.8 C -18.4 14.1 -18.7 10.8 -18 6.9 C -16.4 3.8 -15 1.7 -12.3 -0.4 C -7.9 -1.6 -4 -2.1 0 0 Z" fill="#2327b8" transform="translate(753,403.1)"/>
<path d="M 0 0 C 1.9 1.9 1.3 5.1 1.3 7.7 C 1.3 13.6 1.1 16.8 -3 21 C -3.6 21.6 -4.1 22.2 -4.7 22.9 C -8.4 24.7 -12 24.6 -16 24 C -19.3 22.3 -19.8 21.6 -21 18 C -21.4 13.4 -21.4 10.9 -19.4 6.7 C -14.3 1.1 -7.3 -0.3 0 0 Z" fill="#ffffff" transform="translate(612,478)"/>
<path d="M 0 0 C 3.7 2 6.8 4.9 8 9 C 8.1 11.7 8.1 14.3 8 17 C 3.1 18.7 -1.7 20 -6.8 21.1 C -7.5 21.3 -8.3 21.5 -9.1 21.7 C -14.7 23 -14.7 23 -17 23 C -17.5 15.8 -16.9 10.2 -13 4 C -9.3 -0.2 -5.4 -1.2 0 0 Z" fill="#ffffff" transform="translate(891,591)"/>
<path d="M 0 0 C 2.4 2.3 2.4 2.3 4 5 C 4.4 5.6 4.8 6.2 5.3 6.9 C 6.3 9.9 6.1 12.8 6 16 C -2.2 19.1 -10.4 20.5 -19 22 C -19.7 14.2 -18.4 8.5 -14 2 C -10 -1.9 -5.2 -1.6 0 0 Z" fill="#ffffff" transform="translate(404,592)"/>
<path d="M 0 0 C 2.4 1.6 2.4 1.6 4 4 C 4.6 6.8 4.6 9.2 4 12 C 1.4 15.3 -0.6 16.8 -4.8 17.4 C -8 17 -8 17 -10.9 14.9 C -13 12 -13 12 -13.6 8.5 C -12.9 4.5 -11.8 2.8 -9 0 C -5.8 -1.6 -3.4 -0.8 0 0 Z" fill="#079ffd" transform="translate(324,414)"/>
<path d="M 0 0 C 4.1 0.9 5.6 2.2 8 5.6 C 8.9 9.5 8.6 12.6 6.5 16.1 C 3 18.2 0 18.4 -4 17.6 C -6.5 16.1 -6.5 16.1 -8 13.6 C -8.7 8.6 -8.8 6.8 -5.9 2.6 C -3 0.6 -3 0.6 0 0 Z" fill="#5b35e7" transform="translate(360,485.4)"/>
<path d="M 0 0 C 2.9 -0.1 2.9 -0.1 6 0 C 8 2 8 2 8.1 4.1 C 6.7 17.3 6.7 17.3 3 21 C 0.1 21.2 0.1 21.2 -3 21 C -3.7 20.3 -4.3 19.7 -5 19 C -4.8 12.2 -2.5 6.3 0 0 Z" fill="#7150ea" transform="translate(287,524)"/>
<path d="M 0 0 C 0.9 0 1.8 0 2.8 0 C 3.5 0 4.2 0.1 4.9 0.1 C 5.2 0.7 5.5 1.4 5.9 2.1 C 5.2 2 4.5 2 3.9 1.9 C -0.4 1.7 -3.4 1.7 -7.3 3.5 C -9.4 6.5 -9.3 7.3 -8.9 10.8 C -8.7 12.2 -8.4 13.7 -8.1 15.1 C -10.6 12.8 -11.1 12 -12.1 8.6 C -12.1 5.1 -12.1 5.1 -9.8 2.7 C -6.1 0.4 -4.3 -0.1 0 0 Z" fill="#4a29df" transform="translate(224.1,509.9)"/>
<path d="M 0 0 C -0.6 0.3 -1.1 0.5 -1.7 0.8 C -7.9 4 -12.3 7.9 -17 13 C -17.7 13.7 -18.3 14.3 -19 15 C -17.9 9.3 -14.4 5.6 -9.7 2.4 C -3.6 -1.2 -3.6 -1.2 0 0 Z" fill="#1215b0" transform="translate(590,473)"/>
</svg>
