<?xml version="1.0" encoding="utf-8"?>
<!-- Generator: Adobe Illustrator 24.2.1, SVG Export Plug-In . SVG Version: 6.00 Build 0)  -->
<svg version="1.1" id="svg5" xmlns:svg="http://www.w3.org/2000/svg"
	 xmlns="http://www.w3.org/2000/svg" xmlns:xlink="http://www.w3.org/1999/xlink" x="0px" y="0px" viewBox="0 0 2311.8 512"
	 style="enable-background:new 0 0 2311.8 512;" xml:space="preserve">
<style type="text/css">
	.st0{fill:#CAEBFC;stroke:#000000;stroke-width:7;stroke-miterlimit:10;}
	.st1{fill:none;stroke:#000000;stroke-width:7;stroke-miterlimit:10;}
	.st2{fill:#F4E14E;stroke:#000000;stroke-width:7;stroke-miterlimit:10;}
	.st3{font-family:'Lato-Black';}
	.st4{font-size:419.4395px;}
</style>
<g id="Camada_2">
	<path class="st0" d="M531,245.7c11.5-7.8,21.8-21.5,22-45c0,0-1.6-91.7-93.4-76.8l-24-30.9c0,0-47.7-58.7-76.1,16
		c0,0,12.1-67.8-79.4-81.6c0,0-99.6-18.1-108,63.4c0,0-3.4,19.2,5.4,39.9l3,4.5c-23.5,0-27.5,23.6-27.5,23.6l-1.3,4.7
		c-10.6-3.5-19.7-2.6-35.8,4.5c0,0-43.5,18.7-39.8,68.8l-8.2,1.8c-17.8,6.6-24.8,29.2-24.8,29.2c-17.1,64.5,41.3,63.4,41.3,63.4
		l432.2-2.8c0,0,69.5,3.5,61.2-43.7C577.8,284.7,576.2,256.2,531,245.7z"/>
	<path class="st1" d="M531,245.7c45.2,10.5,46.9,39,46.9,39c8.3,47.2-61.2,43.7-61.2,43.7l-432.2,2.8c0,0-58.4,1.1-41.3-63.4
		c0,0,17.9-57.9,69.5-15.4c0,0,32.8,31.6-6.3,42.4c0,0-24.8,6.3-24.5-17.1c0,0-0.8-22.9,20.9-7.7"/>
	<path class="st1" d="M482.5,223.7c0,0,1.4,16.5,16.8,8c0,0,22-17.1-1.1-31.7c0,0-28.9-19.3-38.3,24.3c0,0-6.6,40.2,48.5,30.9
		c0,0,44.1-9,44.6-54.4c0,0-1.6-91.7-93.4-76.8"/>
	<path class="st1" d="M277.1,140.7c5.1,11.8-10.6,15.1-10.6,15.1c-34,7.3-19.7-29.9-19.7-29.9c4.4-14.1,35.6-0.8,35.6-0.8
		c18.9,7.2,14.9,23.7,14.9,23.7c-5.9,40.7-52.4,28.7-52.4,28.7c-85.4-15.8-72.8-86.5-72.8-86.5c8.5-81.4,108-63.4,108-63.4
		c91.5,13.8,79.4,81.6,79.4,81.6c28.4-74.7,76.1-16,76.1-16c37.5,44.1,24,86.5,24,86.5c-17.1,57.2-69.2,19.8-69.2,19.8
		c-34.7-29.8,0-48.5,0-48.5c22.6-9.6,22,14.3,22,14.3s0,16.3-16.5,8.3"/>
	<path class="st1" d="M151.7,163.5c0,0,5.3-28.3,28.8-28.3"/>
	<path class="st1" d="M161.1,196.1c0,0-6.9-11.9-22-9.4c0,0-20.4,5.5-13.2,30.6c0,0,10.2,25.4,39.7,9.1c0,0,19.8-12.1,13.8-32.5
		c0,0-16-49.6-63.4-25.9c0,0-43.5,18.7-39.8,68.8"/>
	<path class="st2" d="M326.5,212.3L199.2,377.7c0,0-12.7,11,68.9,6.1c0,0,6.1,1.1-8.3,20.4L208,500.6c0,0,0.6,10.5,16.5-5
		l169.2-176.9c0,0,8.8-9.9-12.1-8.8h-71.1c0,0-8.8,1.1-3.9-10.5C306.7,299.4,335.4,200.8,326.5,212.3z"/>
	<text transform="matrix(1 0 0 1 727.0908 407.8809)" class="st3 st4">NINBUS</text>
</g>
</svg>
